<svg xmlns="http://www.w3.org/2000/svg" width="70" height="70" fill="none" xmlns:v="https://vecta.io/nano"><path d="M34.952 70C15.631 70.002-.075 54.242 0 34.93.078 15.579 15.724-.034 35.005 0 54.359.036 69.944 15.593 70 34.937 70.057 54.305 54.368 70 34.952 70zM11.244 57.555c12.905 13.766 34.916 13.51 47.47.009-.265-.306-.517-.634-.806-.925-1.307-1.314-2.855-2.302-4.527-3.047-2.185-.974-4.437-1.8-6.643-2.725-1.046-.439-2.091-.902-3.074-1.463-1.121-.639-1.849-1.6-1.881-2.972l-.112-3.323a2.77 2.77 0 0 1 .61-1.915c1.703-2.205 2.59-4.709 2.606-7.502.002-.439.185-.706.517-.967.738-.585 1.393-1.274 1.591-2.226a28.13 28.13 0 0 0 .461-3.105c.079-.848-.013-1.676-1.091-1.764.151-1.28.351-2.462.421-3.65.14-2.426-.122-4.797-1.344-6.964-1.053-1.867-2.64-2.891-4.811-2.973-.288-.011-.583-.099-.858-.194-2.75-.945-5.59-1.235-8.422-.67-5.511 1.098-8.809 5.836-8.146 11.475.115.974.3 1.939.464 2.982-.756.04-1.201.475-1.186 1.195.04 2.14.079 4.304 1.973 5.814.473.378.594.853.643 1.411.068.801.16 1.604.288 2.397.299 1.865 1.386 3.353 2.361 4.899.241.383.437.866.455 1.31.049 1.226 0 2.455-.027 3.683s-.592 2.182-1.598 2.864c-.47.319-.95.641-1.469.86-1.238.527-2.496 1.013-3.756 1.487-2.61.983-5.194 2.016-7.515 3.603-.972.664-1.87 1.404-2.594 2.396z" fill="#d0cfcf"/></svg>