<svg xmlns="http://www.w3.org/2000/svg" width="64" height="11" fill="none" xmlns:v="https://vecta.io/nano"><path d="M3.807 10.588c-.393 0-.59-.108-.59-.325V1.335H.384c-.098 0-.172-.034-.221-.103S.089 1.049.089.892V.655c0-.158.025-.271.074-.34S.286.212.384.212h6.92c.108 0 .182.034.221.103.049.069.074.182.074.34v.236c0 .158-.025.271-.074.34-.039.069-.113.103-.221.103H4.515v8.928c0 .217-.197.325-.59.325h-.118zm5.973-.03c-.157 0-.271-.035-.339-.103s-.103-.182-.103-.34V.655c0-.158.034-.271.103-.34s.182-.103.339-.103h5.149c.108 0 .182.034.221.103.049.069.074.182.074.34v.236c0 .158-.025.271-.074.34-.039.069-.113.103-.221.103h-4.294v3.37h3.851c.108 0 .182.034.221.103.049.069.074.182.074.34v.237c0 .158-.025.271-.074.34-.039.069-.113.103-.221.103h-3.851v3.607h4.308c.108 0 .182.034.221.103.049.069.074.182.074.34v.236c0 .158-.025.271-.074.34-.039.069-.113.103-.221.103H9.78zm9.766.089c-.59 0-1.136-.069-1.638-.207s-.88-.306-1.136-.503c-.187-.138-.28-.261-.28-.37 0-.118.064-.281.192-.488.138-.207.246-.31.325-.31.039 0 .142.049.31.148a6.2 6.2 0 0 0 .974.429 3.97 3.97 0 0 0 1.254.177c.57 0 1.033-.158 1.387-.473.364-.325.546-.749.546-1.271 0-.365-.098-.665-.295-.902-.197-.246-.438-.439-.723-.576-.275-.148-.679-.325-1.21-.532-.571-.227-1.023-.434-1.357-.621s-.62-.463-.856-.828c-.236-.374-.354-.862-.354-1.463a2.57 2.57 0 0 1 .398-1.419c.275-.414.659-.734 1.151-.961.502-.236 1.077-.355 1.726-.355.334 0 .708.049 1.121.148.413.089.733.212.959.37.197.118.295.246.295.384 0 .108-.064.266-.192.473-.118.207-.212.31-.28.31-.049 0-.123-.025-.221-.074l-.177-.103a3.28 3.28 0 0 0-1.535-.384c-.571 0-1.033.148-1.387.443-.344.296-.516.705-.516 1.227 0 .335.084.606.251.813.177.207.374.365.59.473l1.166.473c.59.227 1.072.448 1.446.665a2.62 2.62 0 0 1 .944.916c.266.394.398.902.398 1.522 0 .887-.295 1.586-.885 2.099s-1.387.769-2.39.769zm7.79-.059c-.393 0-.59-.108-.59-.325V1.335h-2.833c-.098 0-.172-.034-.221-.103s-.074-.182-.074-.34V.655c0-.158.024-.271.074-.34s.123-.103.221-.103h6.92c.108 0 .182.034.221.103.049.069.074.182.074.34v.236c0 .158-.025.271-.074.34-.039.069-.113.103-.221.103h-2.789v8.928c0 .217-.197.325-.59.325h-.118zm8.098 0c-.393 0-.59-.108-.59-.325V1.335h-2.833c-.098 0-.172-.034-.221-.103s-.074-.182-.074-.34V.655c0-.158.025-.271.074-.34s.123-.103.221-.103h6.92c.108 0 .182.034.221.103.049.069.074.182.074.34v.236c0 .158-.025.271-.074.34-.039.069-.113.103-.221.103h-2.789v8.928c0 .217-.197.325-.59.325h-.118zm4.305 0c-.423 0-.634-.084-.634-.251a.71.71 0 0 1 .044-.207L42.646.419c.059-.158.256-.236.59-.236h.428c.354 0 .551.079.59.236l3.497 9.726a.49.49 0 0 1 .044.192c0 .168-.211.251-.634.251h-.118c-.344 0-.541-.079-.59-.236l-.871-2.424h-4.338l-.841 2.424c-.049.158-.246.236-.59.236h-.074zm5.444-3.784l-1.549-4.405c-.049-.158-.108-.443-.177-.857h-.029c-.079.394-.152.68-.221.857l-1.549 4.405h3.526zm6.393 3.843c-.59 0-1.136-.069-1.638-.207s-.88-.306-1.136-.503c-.187-.138-.28-.261-.28-.37 0-.118.064-.281.192-.488.138-.207.246-.31.325-.31.039 0 .143.049.31.148a6.19 6.19 0 0 0 .974.429c.354.118.772.177 1.254.177.57 0 1.033-.158 1.387-.473.364-.325.546-.749.546-1.271 0-.365-.098-.665-.295-.902-.197-.246-.438-.439-.723-.576-.276-.148-.679-.325-1.21-.532-.571-.227-1.023-.434-1.358-.621s-.62-.463-.856-.828c-.236-.374-.354-.862-.354-1.463a2.57 2.57 0 0 1 .398-1.419c.275-.414.659-.734 1.151-.961.502-.236 1.077-.355 1.726-.355.334 0 .708.049 1.121.148.413.089.733.212.959.37.197.118.295.246.295.384 0 .108-.064.266-.192.473-.118.207-.212.31-.28.31-.049 0-.123-.025-.221-.074l-.177-.103a3.28 3.28 0 0 0-1.534-.384c-.571 0-1.033.148-1.387.443-.344.296-.516.705-.516 1.227 0 .335.084.606.251.813.177.207.374.365.59.473l1.166.473c.59.227 1.072.448 1.446.665a2.62 2.62 0 0 1 .944.916c.266.394.398.902.398 1.522 0 .887-.295 1.586-.885 2.099s-1.387.769-2.39.769zm5.798-.059c-.393 0-.59-.108-.59-.325V.507c0-.217.197-.325.59-.325h.118c.393 0 .59.108.59.325V5.03h.059l3.63-4.641c.108-.138.374-.207.797-.207h.148c.167 0 .295.02.384.059.089.03.133.074.133.133 0 .089-.049.187-.147.296l-3.689 4.612 4.471 4.863c.089.098.133.177.133.236 0 .079-.049.133-.148.162s-.266.044-.502.044h-.177a3.55 3.55 0 0 1-.516-.03.49.49 0 0 1-.295-.163l-4.22-4.759h-.059v4.626c0 .217-.197.325-.59.325h-.118z" fill="#000" fill-opacity=".87"/></svg>