<svg xmlns="http://www.w3.org/2000/svg" width="39" height="26" fill="none" xmlns:v="https://vecta.io/nano"><style><![CDATA[.B{fill-opacity:.87}]]></style><path d="M28.779 22.604c.138.994-.238 1.944-.92 2.539-.127.112-.264.21-.41.294a2.55 2.55 0 0 1-.417.192c-.332.117-.677.161-1.016.139-.009 0-.018 0-.028-.002-.684-.049-1.342-.359-1.808-.855-.756-.804-.734-1.802-.725-2.011a2.5 2.5 0 0 1 .016-.295h-8.218a2.48 2.48 0 0 1 .016.295c.009.209.031 1.207-.725 2.011-.466.496-1.124.806-1.808.855-.009.002-.018.002-.028.002a2.55 2.55 0 0 1-1.016-.139c-.146-.051-.284-.116-.417-.192a2.59 2.59 0 0 1-.41-.293c-.681-.597-1.058-1.546-.92-2.54h-2.96l.06-.22 1.105-4.068.242-.011 2.828-.125c.128-.006.226-.112.22-.237s-.111-.225-.241-.218l-2.682.119-.241.011.402-1.482.234.019 2.271.188h.02c.118 0 .22-.09.229-.209.01-.125-.083-.236-.21-.246l-2.188-.181-.234-.019.407-1.5.216.083 2.155.824c.027.01.055.016.083.016a.23.23 0 0 0 .214-.146c.046-.117-.013-.25-.131-.295l-2.199-.843-.216-.082L12.912.802l2.584 7.879c.608-.306 2.025-.931 3.859-.903h.016c1.835-.028 3.251.597 3.859.903L25.814.802l3.582 13.18-.216.082-2.2.843c-.119.046-.178.178-.132.295.036.09.123.146.215.146.028 0 .055-.006.083-.016l2.155-.824.216-.083.407 1.5-.234.019-2.188.181a.23.23 0 0 0-.211.246.23.23 0 0 0 .229.209h.02l2.272-.188.234-.019.402 1.482-.241-.011-2.683-.119c-.13-.005-.235.091-.241.218s.093.232.22.237l2.829.125.242.011 1.105 4.068.06.22h-2.96z" fill="#f4e041"/><g fill="#000" class="B"><path d="M32.038 22.832l-.06-.219-.062-.229-1.103-4.057-.239-.01-.242-.011 1.106 4.071h-2.925l.036.259c.109.783-.125 1.542-.596 2.09a2.29 2.29 0 0 1-.295.288l-.099.078c-.069.052-.14.099-.215.141a2.24 2.24 0 0 1-.39.181 2.3 2.3 0 0 1-.703.131c-.078.002-.157 0-.235-.005l-.228-.026c-.539-.085-1.053-.348-1.44-.759-.642-.683-.678-1.517-.663-1.855 0-.099.005-.187.014-.269l.03-.254h-8.734l.03.254a2.41 2.41 0 0 1 .015.278c.014.328-.022 1.163-.664 1.846a2.52 2.52 0 0 1-1.439.759l-.228.026-.235.005a2.3 2.3 0 0 1-.704-.131 2.21 2.21 0 0 1-.388-.18h-.001c-.075-.042-.147-.09-.216-.143l-.099-.078a2.36 2.36 0 0 1-.295-.288c-.471-.547-.705-1.306-.596-2.09l.036-.259H7.287l1.106-4.071-.242.011-.241.01-1.103 4.057-.062.229-.06.219h3.006c-.076 1.339.702 2.58 1.922 3.011 1.062.376 2.308.064 3.098-.777.761-.809.803-1.792.787-2.166l-.001-.067h7.726v.057c-.017.384.025 1.367.786 2.176a3 3 0 0 0 2.169.935 2.79 2.79 0 0 0 .929-.157c1.22-.431 1.998-1.671 1.922-3.011h3.006zm-23.359-6.46l-.234-.019-.41 1.512.242-.01.241-.011.395-1.451-.234-.019zM25.834 0l-.241.731-2.156 6.572-.346 1.057c-.876-.408-2.174-.838-3.721-.811h-.013a8.55 8.55 0 0 0-3.726.811l-.347-1.057L13.13.731 12.89 0 9.113 13.898l.216.083.216.082 3.386-12.462 1.915 5.843.512 1.56.239-.121c.824-.415 2.149-.907 3.756-.878h.019c1.611-.027 2.927.463 3.751.878l.241.121.511-1.56 1.916-5.843 3.386 12.462.216-.082.215-.083L25.834 0zM8.993 14.341l-.425 1.564.234.019.234.019.39-1.436-.216-.083-.216-.083zm20.739.001l-.215.082-.216.083.39 1.436.234-.019.233-.018-.425-1.564zm.547 2.011l-.232.019-.234.019.395 1.451.24.011.241.01-.41-1.512zm-9.092-1.404c-.271 0-.489-.217-.489-.485v-2.937c0-.268.219-.485.489-.485s.489.217.489.485v2.937c0 .267-.219.485-.489.485zm-3.361-.513a.49.49 0 0 1-.539-.431l-.238-2.216c-.029-.266.166-.505.435-.534a.49.49 0 0 1 .539.431l.238 2.216c.029.267-.166.505-.435.534z"/><path d="M11.875 15.201a.23.23 0 0 1-.214.146.24.24 0 0 1-.083-.016l-2.155-.824-.216-.083-.216-.083-3.131-1.198c-.12-.046-.178-.178-.132-.295s.18-.175.298-.13l3.086 1.181.216.083.216.082 2.199.843c.118.046.177.178.131.295zm-.444 1.17c-.009.119-.11.209-.229.209h-.02l-2.271-.188-.234-.019-.234-.019-3.371-.279c-.127-.01-.221-.121-.209-.246s.12-.219.249-.207l3.454.285.234.019.234.019 2.188.181c.127.01.22.121.209.246zm.008 1.571c.006.125-.092.231-.22.237l-2.828.125-.242.011-.241.01-2.814.125h-.01c-.122 0-.224-.096-.229-.218s.092-.233.219-.238l2.96-.131.242-.01.241-.011 2.682-.119c.13-.007.235.091.24.218zm21.423-4.8l-3.132 1.199-.215.082-.216.083-2.155.824c-.028.01-.055.016-.083.016-.092 0-.18-.056-.215-.146-.046-.117.014-.25.132-.295l2.199-.843.216-.082.215-.083 3.087-1.181a.23.23 0 0 1 .298.13.23.23 0 0 1-.132.295zm.995 2.685a.23.23 0 0 1-.211.246l-3.371.279-.232.019-.234.019-2.272.188h-.02a.23.23 0 0 1-.229-.209.23.23 0 0 1 .211-.246l2.188-.181.234-.019.232-.018 3.455-.286c.127-.013.238.082.249.207zm.008 2.407a.23.23 0 0 1-.23.218h-.01l-2.814-.125-.239-.01-.242-.011-2.829-.125c-.127-.006-.226-.112-.22-.237a.23.23 0 0 1 .241-.218l2.683.119.241.011.24.01 2.96.131c.128.006.226.112.22.238z"/></g><path d="M25.921 23.58a3.47 3.47 0 0 1 .188.906c.029.412-.023.77-.095 1.053l-.094-1.96z" fill="#fff"/><path d="M26.016 25.767a.23.23 0 0 1-.055-.007c-.123-.03-.199-.154-.168-.276a3.16 3.16 0 0 0 .087-.983 3.27 3.27 0 0 0-.176-.847c-.042-.118.022-.248.143-.289a.23.23 0 0 1 .292.141 3.72 3.72 0 0 1 .2.965 3.61 3.61 0 0 1-.1 1.124c-.027.103-.121.172-.223.172z" fill="#000" class="B"/><path d="M27.422 23.489c.141.225.264.498.302.812a1.75 1.75 0 0 1-.152.944l-.15-1.756z" fill="#fff"/><path d="M27.572 25.472c-.031 0-.062-.007-.093-.019-.116-.051-.169-.186-.117-.301a1.54 1.54 0 0 0 .132-.824 1.78 1.78 0 0 0-.268-.719c-.067-.107-.033-.248.075-.314s.25-.033.317.074a2.22 2.22 0 0 1 .334.904c.044.356-.013.714-.168 1.064a.23.23 0 0 1-.21.136z" fill="#000" class="B"/><path d="M12.803 23.58a3.47 3.47 0 0 0-.188.906 3.34 3.34 0 0 0 .095 1.053l.094-1.96z" fill="#fff"/><path d="M12.707 25.767a.23.23 0 0 1-.223-.173c-.092-.37-.127-.749-.1-1.124.022-.325.09-.649.2-.964.042-.119.173-.183.292-.141s.184.171.143.29c-.097.278-.157.562-.176.847a3.16 3.16 0 0 0 .088.983c.03.122-.045.246-.168.276-.018.006-.037.008-.055.008z" fill="#000" class="B"/><path d="M11.302 23.489c-.141.225-.263.498-.302.812-.046.368.037.689.151.944l.15-1.756z" fill="#fff"/><path d="M11.151 25.472a.23.23 0 0 1-.211-.136c-.155-.349-.213-.707-.168-1.064.038-.306.15-.609.334-.904a.23.23 0 0 1 .316-.074c.108.066.142.206.075.314-.149.237-.238.48-.268.719-.033.273.01.551.132.824.052.115-.001.25-.117.301-.031.014-.062.019-.093.019zm-2.796-2.674H.245c-.135 0-.245-.087-.245-.194s.11-.194.245-.194h8.11c.135 0 .245.087.245.194s-.11.194-.245.194zm29.53.042H30.26a.23.23 0 0 1-.23-.228.23.23 0 0 1 .23-.228h7.625a.23.23 0 0 1 .23.228.23.23 0 0 1-.23.228zm-16.18-4.196c-.166.426-.549.888-1.036.958-.45.063-.864-.176-1.162-.546-.029.079-.064.16-.11.24-.075.132-.477.787-1.146.787h-.018c-.638-.011-1.191-.587-1.288-1.341-.015-.125.074-.239.2-.254a.23.23 0 0 1 .257.197c.074.581.485.936.839.942h.009c.422 0 .714-.496.746-.553a1.19 1.19 0 0 0 .127-.763l-.029-.106c-.443.051-.825-.103-.895-.383-.079-.319.276-.682.795-.809s1.006.027 1.085.347c.067.263-.162.555-.535.722a1.55 1.55 0 0 1 .031.147c.186.613.663.973 1.031.922.286-.041.554-.368.67-.669.099-.255.085-.496.056-.652a.23.23 0 1 1 .453-.083c.039.214.058.543-.079.897z" fill="#000" class="B"/></svg>