<svg xmlns="http://www.w3.org/2000/svg" xmlns:xlink="http://www.w3.org/1999/xlink" width="328" height="290" fill="none" xmlns:v="https://vecta.io/nano"><style><![CDATA[.B{fill:#00bdd3}.C{fill:#fff}.D{opacity:.2}.E{fill:#0e1f3d}.F{fill:#000}.G{opacity:.5}.H{opacity:.49}.I{opacity:.25}.J{fill:#f6b69e}.K{fill:#263238}]]></style><path d="M321.927 267.839h-25.843v.194h25.843v-.194zm-92.603 2.106h-6.781v.194h6.781v-.194zm65.98-9.324H280.33v.194h14.974v-.194zm-249.791 1.305h-33.7v.194h33.7v-.194zm11.892 0h-4.939v.194h4.939v-.194zm89.154 3.279H73.463v.194h73.096v-.194z" fill="#ebebeb"/><g fill="#e5f7ff"><path d="M156.106 25.234c-11.345 12.549-16.963 29.644-16.003 46.506s7.202 33.009 14.801 48.106c6.656 13.225 14.607 28.222 9.161 41.983-3.043 7.693-9.98 13.389-17.65 16.559s-16.081 4.087-24.376 4.499c-14.138.707-28.488.062-42.244 3.365s-27.302 11.461-32.623 24.523c-6.266 15.393.851 33.809 13.397 44.741 12.555 10.933 29.393 15.627 45.911 17.95 23.144 3.248 46.856 2.432 69.718-2.393 18.36-3.878 36.424-10.475 51.405-21.734 14.973-11.259 26.662-27.546 29.869-45.962 3.199-18.415-3.012-38.781-17.666-50.452-6.094-4.857-13.444-8.175-18.789-13.839s-8.06-15.098-3.097-21.097c3.277-3.963 8.801-5.175 13.92-5.789 25.179-2.991 53.074 2.176 74.134-11.896 12.055-8.058 19.858-21.796 21.575-36.155s-1.397-29.9-10.48-41.183C292.311-7.751 186.428-8.303 156.106 25.234z"/><path d="M165.949 290c83.554 0 151.288-3.938 151.288-8.796s-67.734-8.796-151.288-8.796-151.288 3.938-151.288 8.796S82.395 290 165.949 290z"/></g><path d="M153.521 157.896l1.95-11.213 3.831 1.112-5.781 10.101zm1.287 3.582l10.971-3.155-1.522-3.675-9.449 6.83zm1.951-4.211l6.25-11.772 4.205 2.913-10.455 8.859zM53.504 174.921h-4.939c-.218 0-.39-.171-.39-.389s.172-.388.39-.388h4.939c.218 0 .39.17.39.388s-.172.389-.39.389zm-8.224 0H20.522c-.218 0-.39-.171-.39-.389s.172-.388.39-.388h24.75c.218 0 .39.17.39.388s-.172.389-.382.389zm87.781 44.96c-.094 0-.188-.031-.266-.101a.39.39 0 0 1-.023-.552l2.309-2.502c.149-.155.391-.163.554-.023a.39.39 0 0 1 .024.551l-2.31 2.503a.38.38 0 0 1-.288.124zm-21.154 19.915a.4.4 0 0 1-.351-.21c-.093-.194-.023-.427.172-.521 7.233-3.644 18.688-17.273 18.805-17.413.14-.163.382-.186.546-.047s.187.381.047.544c-.476.568-11.681 13.886-19.055 17.608-.039.023-.101.039-.164.039z" class="B"/><path d="M168.055 235.538l5.571-4.592-14.029-13.257-5.985 5.09 14.443 12.759z" class="J"/><g class="B"><path d="M178.136 229.182c-.374-.233-1.139-.124-1.927.093l-1.108.358-.734.287-.616.272c-.07.016-.117.085-.125.163-.008.023.008.055.024.078a.16.16 0 0 0 .109.078 13.46 13.46 0 0 0 2.419.404c.398.054.811.023 1.193-.086.024-.008.039-.008.055-.015.219-.07.437-.164.632-.28a.99.99 0 0 0 .367-.863c-.008-.194-.109-.388-.289-.489zm-.078.505c.039.225-.062.451-.25.583-.148.124-.359.202-.632.256-.265.055-.585.07-.952.047-.429-.016-.928-.086-1.482-.187l-.367-.07a9.82 9.82 0 0 1 2.076-.722 9.55 9.55 0 0 1 1.155-.187.67.67 0 0 1 .327.078c.086.046.133.124.125.202z"/><path d="M175.585 226.26c-.359.054-.687.272-.889.567a1.32 1.32 0 0 0-.156.295c-.469 1.003-.227 2.518-.172 2.798a.1.1 0 0 1 .008.039c.007.062.054.116.117.132.031.015.07.023.109.007.023 0 .047-.015.07-.038.133-.109.273-.257.429-.436a6.29 6.29 0 0 0 .664-.932c.483-.785.827-1.671.616-2.129-.086-.179-.289-.389-.796-.303zm.468.458c.133.303-.125.995-.522 1.679-.258.435-.554.855-.851 1.165-.062-.489-.125-1.422.117-2.113a1.4 1.4 0 0 1 .203-.42c.133-.186.32-.334.538-.396l.11-.016c.327-.054.39.063.405.101z"/></g><path d="M172.901 230.62l-6.991 3.512a.61.61 0 0 0-.328.73l2.06 6.512c.226.637.928.971 1.576.746l.125-.047c11.977-4.188 15.645-7.156 16.901-7.832 3.566-1.935 1.56-4.453.234-4.142-5.969 1.422-7.975 1.057-10.557.388-1.381-.209-2.599-.077-3.02.133z" class="E"/><path d="M159.597 217.697l7.108 6.27-5.992 5.09-7.101-6.271 5.985-5.089z" class="D F"/><path d="M157.388 229.011l8.935-8.205-1.967-3.443-10.331 8.835 3.363 2.813z" class="B"/><path d="M157.388 229.011l8.935-8.205-1.967-3.443-10.331 8.835 3.363 2.813z" class="C G"/><use xlink:href="#B" class="B"/><use xlink:href="#B" opacity="0" class="F"/><path d="M72.558 146.987c1.069 4.841 2.193 11.905-1.139 15.222 4.136 7.258 9.106 14.01 14.81 20.126 7.311-12.658.382-20.483.382-20.483-5.478-1.166-5.392-3.365-4.533-7.156l-9.519-7.709z" class="J"/><path d="M68.032 162.823a6.14 6.14 0 0 1 2.372-3.233c1.092-.839 12.453-.963 15.41 0 1.724.544 3.191 1.694 4.128 3.241l-21.91-.008z" class="B"/><g class="J"><path d="M120.444 182.094l2.941-1.337.149 4.771s-1.374 1.22-2.88 1.686c-1.443.443-2.816-.878-2.458-2.338.289-1.213 1.116-2.238 2.248-2.782z"/><path d="M127.137 182.109l-.156 1.749c-.039.544-.437.994-.967 1.111l-2.513.559-.148-4.771 2.552.039c.678-.008 1.225.529 1.232 1.205v.108zm-43.998 13.559c4.416 2.168 9.832 3.412 15.145 2.518 6.257-1.049 17.158-7.304 21.902-10.894l-1.6-2.37c-2.364.505-21.683 10.28-34.168 1.437-2.325-1.647-11.454-8.43-14.685-8.29-5.236.233-4.783 5.695-2.536 7.972 2.645 2.657 12.328 7.856 15.941 9.627z"/></g><g class="D F"><path d="M126.982 183.857a1.25 1.25 0 0 1-.967 1.112l-2.497.559v.008s-1.373 1.22-2.872 1.686a1.62 1.62 0 0 1-.46.078l-.008.007c-4.744 3.59-15.637 9.838-21.894 10.887-5.314.886-10.729-.35-15.145-2.526-3.613-1.771-13.312-6.97-15.941-9.627-2.247-2.277-2.7-7.732 2.536-7.972 3.223-.14 12.36 6.643 14.685 8.29 11.907 8.431 30.025-.069 33.732-1.313.007-.054.015-.116.031-.171.148-.606.421-1.165.811-1.647a4.14 4.14 0 0 1 1.436-1.142l2.91-1.321.032-.008 2.528.031c.671-.008 1.225.536 1.225 1.212v.101l-.141 1.756z" class="D"/><path d="M123.376 180.757l-.023.008v-.008h.023z" class="D"/></g><use xlink:href="#C" class="B"/><use xlink:href="#C" class="C G"/><g class="E"><path d="M93.118 141.789c-.094.637.164 1.157.562 1.212s.804-.389.889-1.003c.094-.614-.164-1.157-.562-1.212-.398-.046-.804.396-.89 1.003z"/><path d="M93.828 140.802l1.529-.21c0-.008-.921 1.033-1.529.21z"/></g><path d="M93.219 142.628s.656 2.782 1.623 4.204c-.921.637-2.247.093-2.247.093l.624-4.297z" fill="#a02724"/><path d="M95.326 137.516a.38.38 0 0 0 .226-.28.36.36 0 0 0-.304-.412 3.61 3.61 0 0 0-3.168.995c-.148.14-.156.365-.023.513a.37.37 0 0 0 .515.023c.016-.015.031-.031.047-.054a2.91 2.91 0 0 1 2.52-.754c.063.007.133 0 .187-.031z" class="E"/><path d="M72.909 136.761c-.632 7.576-1.061 10.762 2.185 15.168 4.884 6.628 14.373 5.758 17.252-1.484 2.606-6.512 3.207-17.802-3.737-21.858a10.45 10.45 0 0 0-14.271 3.621 10.23 10.23 0 0 0-1.428 4.553z" class="J"/><g class="E"><path d="M92.517 149.987c-.577-.482-1.014-1.119-1.264-1.85-.023-.077.023-.163.109-.194.078-.023.164.023.187.109a4.06 4.06 0 0 0 1.085 1.624l-.117.311zm-25.031-23.079c-2.903 3.916-4.221 4.934-.632 15.354 1.444 4.188 5.634 9.736 7.67 10.241 3.652.917 7.202-1.639 9.949-4.211 2.403-2.254 4.705-4.686 6.164-7.631s1.998-6.473.796-9.526c-1.311-3.318-5.938-6.279-9.402-7.009-4.073-.855-12.133-.474-14.544 2.782z"/><path d="M90.238 141.307s.913 1.562-.242 2.727l.023-2.082.218-.645z"/><path d="M90.223 141.307s.335 2.393-1.678 3.287l1.085-2.588.593-.699zm-13.397 10.31s-2.216 1.003-1.896 3.171l1.615-2.293.281-.878z"/><path d="M76.912 151.664s-1.685 1.741-.577 3.644l.648-2.727-.07-.917zm16.362-13.481c.788-.808 1.592-1.632 2.169-2.603.585-.971.936-2.121.765-3.233-.226-1.445-1.319-2.634-2.591-3.364-1.272-.723-2.731-1.049-4.167-1.368-.702-.155-1.49-.303-2.107.07-.601.358-.858 1.111-.819 1.803.031.692.312 1.344.562 1.989.991 2.526 1.615 5.121 2.091 7.778.242 1.345.055 2.23 1.389 1.718.889-.35 2.029-2.091 2.708-2.79z"/></g><path d="M82.772 141.921c-.078 1.756.538 3.465 1.724 4.763 1.584 1.717 3.597.59 4.174-1.539.531-1.911.328-5.105-1.748-6.022-2.075-.924-4.042.661-4.151 2.798zm88.499 97.113l6.023-5.851-11.657-14.6-7.288 4.281 12.922 16.17z" class="J"/><g class="B"><path d="M183.443 231.381c-.671-.234-2.045.512-3.082 1.173l-.703.466-.015.008-.102.078-.468.334c-.078.039-.109.116-.094.194.024.078.094.132.172.14a14.23 14.23 0 0 0 2.154-.07l.476-.055a2.99 2.99 0 0 0 1.451-.497c.156-.101.304-.21.429-.334a1.05 1.05 0 0 0 .195-.987c-.047-.194-.203-.365-.413-.45zm.046.559c.079.225.039.482-.124.668-.203.249-.609.451-1.186.591-.445.109-.984.186-1.616.217l-.788.024c.086-.07.172-.132.266-.195l.187-.132a10.44 10.44 0 0 1 2.731-1.359c.117-.032.242-.032.367.007.078.024.14.094.163.179z"/><path d="M180.102 228.902a1.4 1.4 0 0 0-.796.792c-.491 1.197.234 3.039.359 3.326.008.023.008.031.016.031.031.062.085.109.156.117.039.008.078 0 .117-.016.023-.008.054-.031.062-.046s.016-.016.024-.024a2.94 2.94 0 0 0 .327-.528c.578-1.08 1.116-2.883.64-3.504-.14-.179-.398-.35-.905-.148zm-.195 3.675c-.211-.614-.585-1.919-.242-2.727a1.07 1.07 0 0 1 .476-.536l.109-.055c.336-.132.422-.015.453.024.335.45-.187 2.292-.796 3.294z"/></g><path d="M165.021 217.689l5.493 7.001-7.428 4.118-5.579-6.814 7.514-4.305z" class="D F"/><path d="M64.099 211.426l-.773 3.015c-.117.241.172.466.554.459l34.395-.808c.304-.016.546-.164.562-.35l-.858-3.163c.023-.202-.25-.373-.577-.365l-32.748.956a.6.6 0 0 0-.554.256z" class="E"/><g class="B"><path d="M94.703 214.449l-.905.093c-.179-.008-.328-.054-.328-.163l-.016-3.893c0-.109.148-.218.328-.241l.905-.101c.18.008.328.054.328.171l.016 3.893c-.008.109-.148.218-.328.241z"/><use xlink:href="#D"/><use xlink:href="#D"/><path d="M169.632 220.821l-1.522.855-.007.007-2.614 1.469-2.349 1.313-.008.008-2.411 1.352v.008l-.92.52-.578-.419-.491-.358-2.302-1.764c-4.854-3.823-13.491-11.337-16.058-18.159l-5.93 7.18c-9.809 11.787-25.063 28.424-43.392 30.592-.374.054-.741.085-1.124.116-6.125.529-10.955-.085-14.716-1.461-9.512-3.465-12.165-11.795-11.509-18.874v-.023c.055-3.31.71-9.216.71-9.216l34.699.039c4.892-5.913 14.7-15.175 24.734-21.019.234-.147.476-.287.718-.411.297-.179.601-.335.898-.498 3.261-1.779 6.523-3.154 9.613-3.9.686-.164 1.365-.303 2.036-.404.702-.109 1.397-.171 2.076-.202v.007c4.751-.217 8.879 1.547 11.68 6.271l18.259 26.233.507.738z"/><use xlink:href="#E"/></g><path d="M150.461 186.834l-37.788 1.554c-1.069.046-1.904-.793-1.85-1.857l1.116-24.143c.047-1.072.96-1.973 2.029-2.02l37.789-1.554a1.74 1.74 0 0 1 1.849 1.857l-1.116 24.142c-.047 1.073-.96 1.974-2.029 2.021z" class="E"/><use xlink:href="#E" class="B"/><g class="C"><use xlink:href="#E" opacity=".9"/><path opacity=".1" d="M127.295 159.824l-6.336 28.206 2.52-.101 6.25-28.206-2.434.101zm3.885-.156l-6.336 28.207 5.002-.21 6.25-28.199-4.916.202z"/></g><g class="B"><path d="M138.46 187.137l12.765-.358c.219 1.477-.413 2.028-1.225 2.052l-4.081.101-2.723.062-4.237.116-26.287.762-.211-1.842 25.999-.893z"/><use xlink:href="#F"/></g><g class="F"><use xlink:href="#F" class="D"/><path d="M151.226 186.779l.078.513a1.35 1.35 0 0 1-1.303 1.538l-4.081.101-7.577.272.125-2.067 12.758-.357zm-66.121-15.432s-1.803 3.66 3.402 13.326l2.177 3.94c.718 1.298 5.493-1.352 6.913-3.784 0 0-9.121-5.455-12.492-13.482z" class="D"/></g><g class="J"><path d="M129.244 182.613l3.628-1.064-.585 5.587s-5.064 3.372-6.82.147l.703-1.802c.546-1.368 1.669-2.417 3.074-2.868z"/><path d="M137.039 183.748l-.453 2.013a1.45 1.45 0 0 1-1.303 1.134l-3.019.233.585-5.586 2.965.466a1.43 1.43 0 0 1 1.241 1.608c0 .047-.008.086-.016.132zm-38.007 8.315c2.528 3.419 6.086 6.27 10.276 7.086 4.932.964 14.42-5.983 18.867-10.482-.226-1.896-.093-2.922-1.997-3.186 0 0-4.892 3.574-14.131 5.719-2.98.692-4.97-2.347-7.576-6.768-1.296-2.207-5.493-11.244-7.077-13.256-2.536-3.233-9.769-.917-6.898 6.861 1.209 3.271 6.468 11.228 8.536 14.026z"/></g><path d="M96.333 165.885c5.134 4.693 7.631 12.992 7.631 12.992l-11.985 7.273s-8.763-12.246-7.202-16.512c1.233-3.31 3.519-5.486 6.523-5.673 1.865-.108 3.659.661 5.033 1.92zm-27.481 49.194l-.905.023c-.18-.023-.32-.085-.312-.202l.328-3.877c.016-.117.164-.21.343-.218l.905-.023c.179.023.32.093.312.202l-.328 3.885c-.008.109-.164.225-.343.21zm89.474 12.922l11.673-5.812-.999-4.134-13.312 6.053 2.638 3.893z" class="B"/><path d="M158.326 228.001l11.673-5.812-.999-4.134-13.312 6.053 2.638 3.893z" class="C G"/><path d="M176.826 232.546l-8.053 2.433c-.32.085-.523.388-.484.714l.968 7.273c.125.715.804 1.205 1.522 1.081.046-.008.093-.016.14-.032 13.452-2.23 17.892-4.685 19.335-5.175 4.128-1.39 2.482-4.429 1.015-4.335-6.586.404-8.638-.35-11.252-1.531-1.397-.49-2.708-.567-3.191-.428zM68.547 136.668c-2.419.381-4.814-1.469-5.571-3.784s-.133-4.903 1.108-7.009c.913-1.554 6.898-5.237 9.121-1.088 4.416 8.26-4.658 11.881-4.658 11.881z" class="E"/><use xlink:href="#G" class="B"/><use xlink:href="#G" class="C H"/><path d="M150.422 172.186l-23.604.995.102-2.331 23.603-.995-.101 2.331z" class="B"/><path d="M150.422 172.186l-23.604.995.102-2.331 23.603-.995-.101 2.331z" class="C H"/><use xlink:href="#G" x="-0.288" y="6.473" class="B"/><use xlink:href="#G" x="-0.288" y="6.473" class="C H"/><path d="M150.126 178.659l-23.604.995.11-2.331 23.603-.995-.109 2.331z" class="B"/><path d="M150.126 178.659l-23.604.995.11-2.331 23.603-.995-.109 2.331z" class="C H"/><path d="M149.985 181.892l-23.604 1.003.102-2.331 23.603-1.003-.101 2.331z" class="B"/><path d="M149.985 181.892l-23.604 1.003.102-2.331 23.603-1.003-.101 2.331z" class="C H"/><use xlink:href="#H" class="B"/><use xlink:href="#H" class="C I"/><path d="M117.347 173.495l-1.895.081.034.777 1.894-.082-.033-.776z" class="B"/><path d="M117.347 173.495l-1.895.081.034.777 1.894-.082-.033-.776z" class="C I"/><path d="M117.251 175.733l-1.894.082.033.776 1.895-.081-.034-.777z" class="B"/><path d="M117.251 175.733l-1.894.082.033.776 1.895-.081-.034-.777z" class="C I"/><use xlink:href="#H" x="-0.266" y="6.729" class="B"/><use xlink:href="#H" x="-0.266" y="6.729" class="C I"/><path d="M117.073 180.217l-1.894.081.033.777 1.894-.082-.033-.776z" class="B"/><path d="M115.208 181.084l.07-.785 1.888-.078-.07.777-1.888.086z" class="C I"/><path d="M116.982 182.456l-1.894.08.033.777 1.894-.08-.033-.777z" class="B"/><path d="M116.982 182.456l-1.894.08.033.777 1.894-.08-.033-.777z" class="C I"/><path d="M119.397 169.109l-3.917 1.453.039-1.025 2.17-.35-2.146-.148.039-1.025 3.815 1.095zm23.916-3.707l-16.355.692.079-1.616 16.354-.692-.078 1.616z" class="B"/><path d="M143.313 165.402l-16.355.692.079-1.616 16.354-.692-.078 1.616z" class="C H"/><path d="M121.247 166.242l-2.395.101.967-.614.265.249.289-.257.874.521zm-1.522-.584l-.967.614.07-1.422.897.808zm1.678-.854l-.078 1.352-.882-.513.96-.839z" class="B"/><g class="C"><path d="M120.118 165.397l-.054.057.006.005.054-.056-.006-.006z"/><path d="M120.072 165.42l-.006.005.053.057.006-.006-.053-.056z"/></g><g class="B"><path d="M121.402 164.672l-1.03.932-.289.248-.265-.24-.897-.808-.07-.07 2.551-.062zm-3.962.249l-1.894.081.01.232 1.894-.08-.01-.233zm.002.589l-1.894.081.01.233 1.894-.081-.01-.233zm-.002.601l-1.894.08.01.233 1.894-.08-.01-.233z"/><use xlink:href="#I"/></g><use xlink:href="#I" class="C H"/><use xlink:href="#J" class="B"/><use xlink:href="#J" opacity=".04" class="C"/><g class="B"><path d="M244.619 104.167l-55.391-29.759-1.853 3.419 55.391 29.758 1.853-3.419zm-7.57 13.971L181.658 88.38l-1.852 3.419 55.391 29.758 1.852-3.419zm-7.567 13.971l-55.391-29.758-1.852 3.419 55.391 29.758 1.852-3.419z"/><use xlink:href="#K"/></g><use xlink:href="#K" opacity=".7" class="C"/><use xlink:href="#L" class="B"/><use xlink:href="#L" class="C I"/><g class="B"><path d="M254.504 100.683l-52.435-28.167c-.819-.435-1.834-.132-2.278.676l-.258.474a1.68 1.68 0 0 0 .679 2.269l52.435 28.167c.819.435 1.833.132 2.278-.676l.257-.474c.445-.816.141-1.834-.678-2.269zm-7.569 13.971L194.5 86.487c-.819-.435-1.833-.132-2.278.676l-.258.474a1.68 1.68 0 0 0 .679 2.269l52.435 28.168c.819.435 1.833.132 2.278-.676l.258-.474c.444-.816.14-1.826-.679-2.269zm-7.569 13.971l-52.434-28.167c-.819-.435-1.834-.132-2.279.676l-.257.474a1.68 1.68 0 0 0 .679 2.269l52.434 28.167c.82.435 1.834.132 2.279-.676l.257-.474c.445-.816.141-1.826-.679-2.269z"/><use xlink:href="#M"/></g><use xlink:href="#M" opacity=".7" class="C"/><path d="M265.552 6.911l3.667 16.217c-13.888 3.8-26.35 17.483-35.315 30.421-3.535 5.105-6.531 11.034-8.77 17.305 0 0 28.004-25.23 43.446-26.707l-.734 26.808s16.011-31.058 47.113-42.426c-.008-.008-26.053-18.688-49.407-21.617z" fill="#f4e041"/><path d="M76.616 184.083l7.077 80.555H72.285l-7.615-86.686h5.228c3.503 0 6.414 2.658 6.718 6.131z" class="B"/><path d="M76.685 184.806l7.015 79.832H72.292l-7.615-86.686h4.494c3.909 0 7.171 2.976 7.514 6.854z" class="D F"/><path d="M69.203 183.197l7.155 81.441H8.443L1.374 184.2c-.297-3.357 2.364-6.248 5.751-6.248h56.32c3.004 0 5.501 2.277 5.758 5.245z" class="B"/><path d="M69.28 184.083l7.077 80.555H8.442l-6.976-79.382c-.343-3.924 2.762-7.304 6.718-7.304h54.37c3.503 0 6.422 2.658 6.726 6.131z" class="C D"/><use xlink:href="#N" class="B"/><use xlink:href="#N" class="C D"/><path d="M196.981 273.193H6.64c-2.466 0-4.471-1.989-4.471-4.452 0-2.455 1.998-4.452 4.471-4.452h190.341c2.466 0 4.471 1.989 4.471 4.452 0 2.455-2.005 4.452-4.471 4.452z" class="B"/><path d="M196.982 273.193H86.487c-2.466 0-4.471-1.989-4.471-4.452 0-2.455 1.997-4.452 4.471-4.452h110.495c2.465 0 4.471 1.989 4.471 4.452 0 2.455-2.006 4.452-4.471 4.452z" class="D F"/><path d="M9.138 273.193l2.255 7.646h4.51l2.481-7.646H9.138z" class="K"/><path d="M9.138 273.193l2.255 7.646h4.51l2.481-7.646H9.138z" class="C G"/><use xlink:href="#O" class="K"/><use xlink:href="#O" class="C G"/><use xlink:href="#O" x="49.47" class="K"/><use xlink:href="#O" x="49.47" class="C G"/><use xlink:href="#O" x="114.1" class="K"/><use xlink:href="#O" x="114.1" class="C G"/><path d="M261.432 150.254c0 17.215-13.964 31.171-31.19 31.171s-31.189-13.956-31.189-31.171 13.964-31.172 31.189-31.172 31.19 13.956 31.19 31.172z" fill="#ea5924"/><path d="M226.212 156.733l-5.11-5.107c-.57-.57-1.475-.57-2.045 0s-.569 1.473 0 2.043l6.119 6.114c.569.569 1.489.569 2.059 0l15.478-15.454c.569-.569.569-1.474 0-2.043a1.44 1.44 0 0 0-2.045 0l-14.456 14.447z" class="C"/><defs ><path id="B" d="M162.952 218.567l-1.193 1.026-1.787 1.53-1.069.902-3.114 2.665-.6.505s-12.727-7.141-19.812-13.241c-4.853-4.18-5.29-5.734-5.797-5.345-6.843 5.182-27.099 23.101-38.577 32.425-.374.039-.741.078-1.124.101-6.133.451-10.955-.225-14.7-1.647-.039-4.958 4.221-16.535 4.572-17.654 0 0 16.94-16.769 44.383-30.942.273-.14.554-.249.827-.365.359-.155.71-.303 1.076-.435 1.436-.544 2.841-.878 4.206-.948 1.225-.062 2.419.155 3.566.559a13.73 13.73 0 0 1 1.904.832c.546.272 1.077.59 1.592.917.85.536 1.669 1.134 2.442 1.725 1.748 1.344 15.005 18.353 22.136 26.201a22.51 22.51 0 0 0 1.069 1.189z"/><path id="C" d="M99.501 170.632c6.624 14.538-8.739 18.688-1.701 42.527l-33.396.8c.226-12.774 4.783-10.031-1.225-34.049-.507-2.036-1.358-7.872.819-13.186.85-2.067 2.356-3.823 4.331-4.888 2.466-1.329 13.327-.287 18.282.039 5.368-.746 11.907 6.939 12.89 8.757z"/><path id="D" d="M82.39 214.605l-.905.093c-.179-.008-.32-.055-.328-.163l-.008-3.893c0-.109.148-.218.328-.241l.897-.101c.179.008.328.054.328.171l.016 3.893c0 .124-.148.217-.328.241z"/><path id="E" d="M150.906 184.915l-38.343 1.577 1.124-24.298 38.342-1.577-1.123 24.298z"/><path id="F" d="M138.46 187.136l12.765-.357c.219 1.476-.413 2.028-1.225 2.051l-4.081.101-2.723.062-4.237.117-32.537.995c-.375.007-.718-.195-.882-.537-.289-.606.141-1.321.819-1.344l32.101-1.088z"/><path id="G" d="M150.562 168.946l-23.604 1.002.11-2.331 23.603-1.002-.109 2.331z"/><path id="H" d="M117.432 171.25l-1.894.082.033.776 1.895-.082-.034-.776z"/><path id="I" d="M227.365 48.079h-11.368a1.86 1.86 0 0 1-1.865-1.857 1.86 1.86 0 0 1 1.865-1.857h11.368a1.86 1.86 0 0 1 1.865 1.857 1.86 1.86 0 0 1-1.865 1.857z"/><path id="J" d="M269.072 86.238l-43.587 79.879c-.562 1.026-1.857 1.407-2.887.847l-74.165-40.134a2.12 2.12 0 0 1-.851-2.875l56.687-103.897c.562-1.026 1.858-1.406 2.888-.847l49.976 27.041 11.939 39.986z"/><path id="K" d="M257.196 46.221l-13.14 24.096a2.12 2.12 0 0 0 .851 2.875l24.118 13.054-11.829-40.025z"/><path id="L" d="M280.432 83.549l-43.586 79.879c-.562 1.026-1.857 1.407-2.887.847l-74.166-40.134c-1.03-.559-1.412-1.849-.85-2.875L215.63 17.369c.562-1.026 1.857-1.406 2.887-.847l49.977 27.041 11.938 39.986z"/><path id="M" d="M268.565 43.532l-13.148 24.096c-.562 1.026-.18 2.316.85 2.875l24.119 13.054-11.821-40.025z"/><path id="N" d="M188.727 264.638H8.756l-1.958-22.34h172.762c3.987 0 7.498 3.217 7.841 7.188l1.327 15.152z"/><path id="O" d="M73.768 273.193l2.255 7.646h4.51l2.481-7.646h-9.246z"/></defs></svg>